<?xml version="1.0" encoding="UTF-8"?>
<svg xmlns="http://www.w3.org/2000/svg" xmlns:xlink="http://www.w3.org/1999/xlink" width="64px" height="64px" viewBox="0 0 64 64" version="1.1">
<g id="surface1">
<path style=" stroke:none;fill-rule:nonzero;fill:rgb(0%,0%,0%);fill-opacity:1;" d="M 52.773438 29.335938 C 52.621094 20.320312 45.246094 13.023438 36.238281 13.023438 C 30.125 13.023438 24.480469 16.472656 21.574219 21.804688 C 20.242188 20.863281 18.675781 20.3125 17.03125 20.3125 C 12.800781 20.3125 9.34375 23.761719 9.34375 28 C 9.34375 28.152344 9.34375 28.390625 9.34375 28.550781 C 4.25 29.726562 0.640625 34.273438 0.640625 39.601562 C 0.640625 45.875 5.734375 50.96875 12.007812 50.96875 L 52.542969 50.96875 C 58.503906 50.96875 63.359375 46.113281 63.359375 40.152344 C 63.359375 34.273438 58.65625 29.492188 52.773438 29.335938 Z M 52.542969 49.40625 L 12.007812 49.40625 C 6.597656 49.40625 2.207031 45.019531 2.207031 39.609375 C 2.207031 34.828125 5.65625 30.753906 10.363281 29.964844 L 11.148438 29.8125 L 10.988281 29.023438 C 10.910156 28.632812 10.910156 28.320312 10.910156 28.007812 C 10.910156 24.632812 13.65625 21.886719 17.03125 21.886719 C 18.597656 21.886719 20.089844 22.515625 21.261719 23.609375 L 22.046875 24.398438 L 22.515625 23.457031 C 24.945312 18.125 30.355469 14.675781 36.238281 14.675781 C 44.542969 14.675781 51.289062 21.421875 51.289062 29.726562 C 51.289062 29.882812 51.289062 30.042969 51.289062 30.117188 L 51.289062 31.058594 L 52.308594 30.980469 C 52.460938 30.980469 52.542969 30.980469 52.699219 30.980469 C 57.792969 30.980469 61.953125 35.136719 61.953125 40.230469 C 61.953125 45.332031 57.636719 49.40625 52.542969 49.40625 Z M 52.542969 49.40625 "/>
<path style=" stroke:none;fill-rule:nonzero;fill:rgb(0%,0%,0%);fill-opacity:1;" d="M 24.710938 31.609375 C 24.320312 31.609375 23.929688 31.847656 23.847656 32.238281 L 19.847656 42.347656 L 21.253906 42.898438 L 22.433594 40 L 27.058594 40 L 28.238281 42.898438 L 29.652344 42.347656 L 25.652344 32.238281 C 25.414062 31.847656 25.101562 31.609375 24.710938 31.609375 Z M 22.980469 38.425781 L 24.703125 34.035156 L 26.433594 38.425781 Z M 22.980469 38.425781 "/>
<path style=" stroke:none;fill-rule:nonzero;fill:rgb(0%,0%,0%);fill-opacity:1;" d="M 35.449219 31.21875 L 30.667969 31.21875 L 30.667969 42.667969 L 32.160156 42.667969 L 32.160156 38.746094 L 35.449219 38.746094 C 37.484375 38.746094 39.210938 37.101562 39.210938 34.980469 C 39.210938 32.863281 37.566406 31.21875 35.449219 31.21875 Z M 35.449219 37.175781 L 32.160156 37.175781 L 32.160156 32.789062 L 35.449219 32.789062 C 36.703125 32.789062 37.644531 33.804688 37.644531 34.980469 C 37.644531 36.152344 36.703125 37.175781 35.449219 37.175781 Z M 35.449219 37.175781 "/>
<path style=" stroke:none;fill-rule:nonzero;fill:rgb(0%,0%,0%);fill-opacity:1;" d="M 41.09375 32 L 42.585938 32 L 42.585938 42.585938 L 41.09375 42.585938 Z M 41.09375 32 "/>
</g>
</svg>
